<svg xmlns="http://www.w3.org/2000/svg" viewBox="0 0 512 512">
  <rect width="512" height="512" rx="100" fill="#0b0d14"/>
  <ellipse cx="256" cy="170" rx="38" ry="80" fill="#7c6fff" opacity="0.85" transform="rotate(0 256 256)"/>
  <ellipse cx="256" cy="170" rx="38" ry="80" fill="#7c6fff" opacity="0.85" transform="rotate(45 256 256)"/>
  <ellipse cx="256" cy="170" rx="38" ry="80" fill="#7c6fff" opacity="0.85" transform="rotate(90 256 256)"/>
  <ellipse cx="256" cy="170" rx="38" ry="80" fill="#7c6fff" opacity="0.85" transform="rotate(135 256 256)"/>
  <ellipse cx="256" cy="170" rx="38" ry="80" fill="#7c6fff" opacity="0.85" transform="rotate(180 256 256)"/>
  <ellipse cx="256" cy="170" rx="38" ry="80" fill="#7c6fff" opacity="0.85" transform="rotate(225 256 256)"/>
  <ellipse cx="256" cy="170" rx="38" ry="80" fill="#7c6fff" opacity="0.85" transform="rotate(270 256 256)"/>
  <ellipse cx="256" cy="170" rx="38" ry="80" fill="#7c6fff" opacity="0.85" transform="rotate(315 256 256)"/>
  <ellipse cx="256" cy="196" rx="24" ry="58" fill="#c4beff" opacity="0.95" transform="rotate(0 256 256)"/>
  <ellipse cx="256" cy="196" rx="24" ry="58" fill="#c4beff" opacity="0.95" transform="rotate(60 256 256)"/>
  <ellipse cx="256" cy="196" rx="24" ry="58" fill="#c4beff" opacity="0.95" transform="rotate(120 256 256)"/>
  <ellipse cx="256" cy="196" rx="24" ry="58" fill="#c4beff" opacity="0.95" transform="rotate(180 256 256)"/>
  <ellipse cx="256" cy="196" rx="24" ry="58" fill="#c4beff" opacity="0.95" transform="rotate(240 256 256)"/>
  <ellipse cx="256" cy="196" rx="24" ry="58" fill="#c4beff" opacity="0.95" transform="rotate(300 256 256)"/>
  <circle cx="256" cy="256" r="46" fill="#fbbf24"/>
  <circle cx="256" cy="256" r="30" fill="#f59e0b"/>
  <circle cx="256" cy="256" r="14" fill="#fff9" />
</svg>
